<svg width="200" height="200" viewBox="0 0 200 200" fill="none" xmlns="http://www.w3.org/2000/svg">
<path d="M93.7499 156.25C93.7499 163.167 88.1666 168.75 81.2499 168.75C74.3333 168.75 68.7499 163.167 68.7499 156.25C68.7499 149.333 74.3333 143.75 81.2499 143.75C88.1666 143.75 93.7499 149.333 93.7499 156.25ZM135.417 143.75C128.5 143.75 122.917 149.333 122.917 156.25C122.917 163.167 128.5 168.75 135.417 168.75C142.333 168.75 147.917 163.167 147.917 156.25C147.917 149.333 142.333 143.75 135.417 143.75ZM172.75 64L156.083 130.667C155.417 133.417 152.917 135.417 150 135.417H66.6666C63.6666 135.417 61.0833 133.25 60.4999 130.25L44.7499 43.75H33.3333C29.9166 43.75 27.0833 40.9167 27.0833 37.5C27.0833 34.0833 29.9166 31.25 33.3333 31.25H49.9999C52.9999 31.25 55.5832 33.4167 56.1666 36.4167L59.7499 56.25H166.667C168.583 56.25 170.417 57.1667 171.583 58.6667C172.75 60.1667 173.167 62.1667 172.75 64ZM158.667 68.75H61.9999L71.8332 122.917H145.083L158.667 68.75Z" fill="black"/>
</svg>
